HIERARCHY
ROOT hip
{
	OFFSET 0.000000 0.000000 0.000000 
	CHANNELS 6 Xposition Yposition Zposition Xrotation Zrotation Yrotation
	JOINT abdomen
	{
		OFFSET 0.000000 3.402643 0.000000 
		CHANNELS 3 Xrotation Zrotation Yrotation
		JOINT chest
		{
			OFFSET 0.000000 8.438565 -0.680529 
			CHANNELS 3 Xrotation Zrotation Yrotation
			JOINT neck
			{
				OFFSET 0.000000 10.207942 -0.272212 
				CHANNELS 3 Xrotation Zrotation Yrotation
				JOINT head
				{
					OFFSET 0.000000 3.130431 0.000000 
					CHANNELS 3 Xrotation Zrotation Yrotation
					End Site
					{
						OFFSET 0.000000 3.130435 0.000000 
					}
				}
			}
			JOINT lCollar
			{
				OFFSET 3.470700 6.669187 -0.816635 
				CHANNELS 3 Yrotation Zrotation Xrotation
				JOINT lShldr
				{
					OFFSET 3.198488 0.000000 0.000000 
					CHANNELS 3 Zrotation Yrotation Xrotation
					JOINT lForeArm
					{
						OFFSET 10.139888 0.000000 0.000000 
						CHANNELS 3 Yrotation Zrotation Xrotation
						JOINT lHand
						{
							OFFSET 8.370511 0.000000 0.000000 
							CHANNELS 3 Zrotation Yrotation Xrotation
							End Site
							{
								OFFSET 4.083176 0.000000 0.000000 
							}
						}
					}
				}
			}
			JOINT rCollar
			{
				OFFSET -3.470700 6.669187 -0.816635 
				CHANNELS 3 Yrotation Zrotation Xrotation
				JOINT rShldr
				{
					OFFSET -3.198488 0.000000 0.000000 
					CHANNELS 3 Zrotation Yrotation Xrotation
					JOINT rForeArm
					{
						OFFSET -10.139888 0.000000 0.000000 
						CHANNELS 3 Yrotation Zrotation Xrotation
						JOINT rHand
						{
							OFFSET -8.370511 0.000000 0.000000 
							CHANNELS 3 Zrotation Yrotation Xrotation
							End Site
							{
								OFFSET -4.083176 0.000000 0.000000 
							}
						}
					}
				}
			}
		}
	}
	JOINT lThigh
	{
		OFFSET 5.308129 -1.633274 1.361059 
		CHANNELS 3 Xrotation Zrotation Yrotation
		JOINT lShin
		{
			OFFSET -2.041588 -20.007561 0.000000 
			CHANNELS 3 Xrotation Zrotation Yrotation
			JOINT lFoot
			{
				OFFSET 0.000000 -19.190928 -1.224953 
				CHANNELS 3 Xrotation Yrotation Zrotation
				End Site
				{
					OFFSET 0.000000 -2.449906 4.627600 
				}
			}
		}
	}
	JOINT rThigh
	{
		OFFSET -5.308129 -1.633274 1.361059 
		CHANNELS 3 Xrotation Zrotation Yrotation
		JOINT rShin
		{
			OFFSET 2.041588 -20.007561 0.000000 
			CHANNELS 3 Xrotation Zrotation Yrotation
			JOINT rFoot
			{
				OFFSET 0.000000 -19.190928 -1.224953 
				CHANNELS 3 Xrotation Yrotation Zrotation
				End Site
				{
					OFFSET 0.000000 -2.449906 4.627600 
				}
			}
		}
	}
}
MOTION
Frames: 14
Frame Time: 0.033333
1.678160 10.583948 1.678160 89.989098 -1.015566 89.990311 14.196319 -8.878984 -19.921097 -28.994638 -6.183121 2.954201 27.899094 13.170384 5.872221 10.524219 0.508720 -0.030344 -14.881405 8.502348 9.459363 -76.963226 -8.570460 24.108934 -30.509624 -2.271284 2.263812 22.965946 -17.894388 -45.671883 1.590411 21.062853 5.211534 84.667336 -15.912251 -16.826078 41.592335 2.532882 2.101169 33.763969 65.717621 69.346878 -41.081345 -26.020075 -33.149010 51.904240 0.312545 -4.264906 -5.967737 -27.527338 -25.525871 -7.724072 -13.630853 -13.593428 44.466881 0.136872 3.956909 -8.681795 -0.663997 17.403629 
1.283948 8.485201 1.283948 92.989845 -2.664308 97.439842 15.112530 -8.791493 -19.623571 -28.914845 -6.107062 3.597543 28.006214 12.956281 7.669840 10.524219 0.508720 -0.030344 -16.934729 8.453479 10.225773 -79.341881 -10.252513 27.904734 -33.270329 -2.338293 2.233097 20.176094 -26.866211 -39.808533 4.207694 22.401073 4.587272 84.236839 -12.502532 -16.752436 42.327564 2.544237 2.089090 31.370132 66.513809 68.748985 -40.671677 -24.517971 -31.256052 50.071548 0.185210 -4.214938 -5.875096 -26.236710 -23.349127 -7.460370 -13.112646 -11.768593 43.989426 0.166096 3.927365 -9.930758 -1.707529 17.708792 
-0.170748 7.641352 -0.170748 95.270744 -3.865773 107.077675 16.055157 -8.687786 -19.332718 -28.785702 -6.012371 4.263537 28.167175 12.720729 9.503780 10.524219 0.508720 -0.030344 -18.664209 8.410625 10.978724 -81.327118 -11.399614 31.511723 -36.145706 -2.408230 2.193175 16.326498 -35.169418 -33.235912 7.281904 23.611801 3.866524 83.315628 -8.789777 -16.300737 43.287540 2.564143 2.082226 28.133755 67.194481 67.499382 -40.162296 -22.279772 -28.714306 48.873058 0.117070 -4.154113 -5.401937 -25.078056 -21.493061 -7.342815 -12.370675 -9.717201 43.861862 0.159448 3.938499 -10.686450 -2.787870 17.989712 
-1.697618 7.646895 -1.697618 96.880882 -4.619012 118.344902 17.043344 -8.557100 -19.048128 -28.627176 -5.918015 4.936697 28.353203 12.480620 11.340360 10.524219 0.508720 -0.030344 -19.785192 8.452742 11.660618 -82.756676 -12.166714 34.675251 -38.786102 -2.468534 2.155607 11.652802 -42.143761 -26.285608 10.758209 24.690369 3.002624 81.873123 -4.895010 -15.553165 44.429184 2.595054 2.057003 24.156948 67.718170 65.667549 -39.496288 -19.386675 -25.632151 48.229916 0.068278 -4.127571 -4.516246 -24.016430 -19.892975 -7.282557 -11.449388 -7.425858 44.067135 0.166188 3.940580 -11.027211 -3.928303 18.304296 
-2.919130 7.324818 -2.919130 97.989403 -4.921107 130.671005 18.048019 -8.411015 -18.765572 -28.429327 -5.814415 5.614847 28.584064 12.230518 13.195064 10.524219 0.508720 -0.030344 -19.998739 8.656202 12.177180 -83.517822 -12.733534 37.179916 -40.898006 -2.518072 2.117224 6.952984 -47.337158 -19.801542 14.582078 25.000000 2.015523 79.896713 -0.965290 -14.636513 45.724735 2.619445 2.038997 19.594858 68.081314 63.353653 -38.570225 -15.991833 -22.089384 48.064064 0.058579 -4.124411 -3.227942 -23.081816 -18.482046 -7.281518 -10.374583 -5.025139 44.496510 0.136883 3.948550 -11.004824 -5.088620 18.674210 
-3.652029 6.014488 -3.652029 98.794563 -4.860499 143.492828 19.078333 -8.254930 -18.497417 -28.221634 -5.701097 6.280707 28.817633 11.958521 15.030295 10.524219 0.508720 -0.030344 -18.999506 9.128039 12.406113 -83.563515 -13.346684 38.761051 -42.168682 -2.546389 2.101929 3.680249 -50.491714 -15.345897 18.668730 25.000000 0.915314 77.388725 2.865527 -13.592595 47.143669 2.651046 2.009403 14.622910 68.252327 60.689125 -37.316124 -12.191650 -18.144617 48.268597 0.068230 -4.138965 -1.568616 -22.244507 -17.162474 -7.264701 -9.207693 -2.578007 45.121029 0.097718 3.961147 -10.666115 -6.197320 19.174829 
-4.085096 4.432109 -4.085096 99.461708 -4.500593 156.189758 20.112722 -8.068823 -18.242682 -27.994432 -5.587842 6.936703 29.065762 11.679189 16.828138 10.524219 0.508720 -0.030344 -16.957914 9.839569 12.386120 -82.925781 -13.960468 39.226479 -42.833824 -2.565603 2.083289 2.336006 -52.262768 -13.253270 22.918444 25.000000 -0.275553 74.377892 6.469961 -12.488397 48.647289 2.682626 1.979617 9.456554 68.226952 57.831623 -35.693794 -8.140291 -13.835948 48.784534 0.114603 -4.170684 0.465646 -21.446106 -15.796626 -7.233765 -7.946510 -0.132201 45.870907 0.032243 4.007133 -10.088514 -7.319018 19.796038 
-4.545937 3.382733 -4.545937 100.113739 -4.028883 168.207565 21.162020 -7.870587 -18.008020 -27.757652 -5.484187 7.574343 29.327074 11.383974 18.580868 10.524219 0.508720 -0.030344 -14.233611 10.679914 12.171017 -81.742401 -14.399205 38.595661 -43.368481 -2.572811 2.076396 2.234888 -53.457462 -12.567886 27.262472 25.000000 -1.530314 70.912865 9.745767 -11.360188 50.206516 2.713510 1.953264 4.292032 68.018723 54.948307 -33.650944 -3.964705 -9.254171 49.516243 0.146176 -4.188763 2.827718 -20.653767 -14.248987 -7.151546 -6.674036 2.273068 46.689034 -0.016981 4.062075 -9.282745 -8.405080 20.534119 
-5.145585 3.404909 -5.145585 -79.225822 -176.354843 -1.047430 22.206781 -7.662022 -17.790291 -27.520981 -5.380330 8.173777 29.586491 11.102552 20.278032 10.524219 0.508720 -0.030344 -10.983343 11.651197 11.747740 -80.174820 -14.706852 37.030617 -43.763359 -2.586311 2.070840 3.336582 -54.137280 -13.237952 31.634260 25.000000 -2.859267 67.101280 12.592346 -10.188731 51.780003 2.747790 1.917634 -0.653445 67.652931 52.191059 -31.176271 0.176088 -4.351985 50.402767 0.224095 -4.221540 5.383764 -19.733751 -12.488213 -7.019201 -5.418458 4.569726 47.479294 -0.065771 4.076474 -8.331321 -9.413075 21.408627 
-5.772992 3.993484 -5.772992 -78.632584 -176.441803 7.818991 23.256935 -7.442488 -17.591562 -27.284412 -5.276275 8.734104 29.828772 10.803671 21.895159 10.524219 0.508720 -0.030344 -7.314399 12.664362 11.129326 -78.406883 -14.883416 34.738247 -44.036064 -2.590569 2.066941 5.459752 -54.348209 -15.076509 35.928078 25.000000 -4.189538 63.058922 14.951656 -8.942931 53.338806 2.774763 1.891973 -5.210106 67.169792 49.688110 -28.253086 4.139062 0.796948 51.329403 0.288741 -4.231863 8.029425 -18.688522 -10.506236 -6.788417 -4.195516 6.684812 48.220039 -0.107466 4.110498 -7.268819 -10.326038 22.353279 
-6.411499 4.498769 -6.411499 101.810776 -3.970058 -165.733459 24.281769 -7.202680 -17.409626 -27.057850 -5.181632 9.249354 30.058969 10.504030 23.427954 10.524219 0.508720 -0.030344 -3.357963 13.687971 10.344049 -76.566109 -14.904043 31.908377 -44.197731 -2.591608 2.066404 8.371182 -54.090580 -17.826405 40.061199 25.000000 -5.484773 58.951153 16.832188 -7.565496 54.850006 2.801872 1.852708 -9.241544 66.589157 47.528828 -24.944262 7.799865 6.130998 52.256145 0.329727 -4.252275 10.602705 -17.360126 -8.334917 -6.505246 -3.083816 8.588702 48.825268 -0.136671 4.114556 -6.153019 -11.182482 23.293297 
-7.111082 4.731869 -7.111082 102.039909 -4.528353 -162.294281 25.302027 -6.958979 -17.256660 -26.841368 -5.106142 9.709743 30.258831 10.221609 24.849199 10.524219 0.508720 -0.030344 0.739497 14.681535 9.384133 -74.808372 -14.741223 28.749247 -44.227871 -2.593745 2.063503 11.733853 -53.368629 -21.136400 43.955681 25.000000 -6.750408 54.919991 18.260113 -6.003872 56.266563 2.828616 1.826140 -12.679811 65.974358 45.736755 -21.286287 11.042870 11.634851 53.103973 0.388001 -4.280014 12.934862 -15.804361 -6.079980 -6.124712 -2.118427 10.197726 49.244732 -0.166015 4.119967 -5.034901 -11.935082 24.205339 
-7.827338 4.887364 -7.827338 102.140076 -4.788443 -161.564880 26.286570 -6.693378 -17.129347 -26.654448 -5.039953 10.105942 30.439144 9.946130 26.156218 10.524219 0.508720 -0.030344 4.862255 15.595285 8.335644 -73.225143 -14.370608 25.491541 -44.137505 -2.594730 2.065847 15.276439 -52.215195 -24.732714 45.000000 25.000000 -7.910301 51.149075 19.292820 -4.207775 57.573364 2.852374 1.792468 -15.446975 65.397156 44.340897 -17.380524 13.736939 17.163557 53.737953 0.426637 -4.288120 14.914099 -14.034533 -3.871934 -5.682113 -1.337849 11.452451 49.399300 -0.192898 4.153599 -3.957944 -12.653274 25.011211 
-8.388111 4.915076 -8.388111 102.167770 -4.825224 -162.926712 27.257170 -6.425207 -17.031183 -26.506870 -4.983026 10.428842 30.577974 9.671336 27.326593 10.524219 0.508720 -0.030344 8.866364 16.382746 7.194837 -71.896378 -13.790654 22.366488 -43.945683 -2.591403 2.069225 18.705717 -50.695965 -28.310669 45.000000 25.000000 -8.939917 47.774403 20.048218 -2.163471 58.721138 2.870356 1.776775 -17.487368 64.870193 43.336971 -13.347157 15.841973 22.608253 54.136654 0.464299 -4.315706 16.410965 -12.146018 -1.855192 -5.140139 -0.772845 12.326093 49.254196 -0.150130 4.137004 -2.972230 -13.287217 25.591560 
